<svg width="100%" height="78" viewBox="0 0 320 78" fill="none" xmlns="http://www.w3.org/2000/svg">
    <path d="M28.1771 26.957H18.3413V61.9892H28.1771V26.957Z" fill="#000"></path>
    <path d="M38.2822 30.6099C41.3138 27.6812 45.5243 26.2168 50.8801 26.2168C56.2359 26.2168 60.4128 27.6812 63.4275 30.6099C66.4422 33.5386 67.958 37.3685 67.958 42.0835V61.9731H58.1391V42.8237C58.1391 40.1846 57.5328 38.1409 56.3033 36.6766C55.0738 35.2122 53.2717 34.472 50.8801 34.472C48.4885 34.472 46.6864 35.2122 45.457 36.6766C44.2275 38.1409 43.6212 40.1846 43.6212 42.8237V61.9731H33.718V42.0835C33.718 37.3685 35.2338 33.5386 38.2822 30.6099Z" fill="#000"></path>
    <path d="M94.2824 61.9894C92.3624 62.3917 90.5097 62.5848 88.7413 62.5848C84.0087 62.5848 80.2192 61.2814 77.3897 58.6745C74.5602 56.0676 73.1455 52.2538 73.1455 47.2331V15.709H83.0487V26.9573H94.0466V34.7136H83.0487V46.2676C83.0487 49.1963 83.655 51.2561 84.8845 52.4469C86.1139 53.6377 88.3539 54.2331 91.6381 54.2331L94.2992 54.1527V61.9734L94.2824 61.9894Z" fill="#000"></path>
    <path d="M105.92 47.684C106.492 50.0173 107.604 51.8196 109.271 53.0909C110.939 54.3621 112.96 54.9897 115.351 54.9897C117.473 54.9897 119.191 54.7001 120.505 54.1368C121.802 53.5736 122.812 52.6564 123.536 51.4173H132.665C131.57 55.1024 129.448 57.9185 126.265 59.8817C123.099 61.8449 119.528 62.8265 115.587 62.8265C111.848 62.8265 108.53 62.038 105.65 60.4771C102.77 58.9162 100.53 56.7437 98.947 53.9598C97.3639 51.1759 96.5723 48.0219 96.5723 44.4978C96.5723 40.9736 97.3807 37.884 98.9975 35.1001C100.614 32.3162 102.854 30.1437 105.701 28.5828C108.564 27.0219 111.781 26.2334 115.368 26.2334C118.955 26.2334 122.004 27.0219 124.8 28.615C127.612 30.2081 129.802 32.3966 131.385 35.1805C132.968 37.9644 133.76 41.0702 133.76 44.4978C133.76 45.7368 133.709 46.7989 133.608 47.7001H105.92V47.684ZM105.835 41.1185H124.48C124.176 39.0748 123.166 37.3851 121.482 36.0495C119.798 34.7139 117.76 34.038 115.351 34.038C112.943 34.038 110.854 34.6817 109.187 35.969C107.52 37.2564 106.408 38.9782 105.835 41.1185Z" fill="#000"></path>
    <path d="M142.299 30.6099C145.331 27.6812 149.541 26.2168 154.897 26.2168C160.253 26.2168 164.43 27.6812 167.444 30.6099C170.459 33.5386 171.975 37.3685 171.975 42.0835V61.9731H162.156V42.8237C162.156 40.1846 161.55 38.1409 160.32 36.6766C159.091 35.2122 157.289 34.472 154.897 34.472C152.505 34.472 150.703 35.2122 149.474 36.6766C148.244 38.1409 147.638 40.1846 147.638 42.8237V61.9731H137.735V42.0835C137.735 37.3685 139.251 33.5386 142.299 30.6099Z" fill="#000"></path>
    <path d="M175.478 51.4817H184.91C185.112 52.769 185.752 53.7506 186.813 54.4265C187.874 55.1024 189.137 55.4403 190.586 55.4403C192.034 55.4403 193.095 55.1667 193.904 54.6196C194.712 54.0725 195.116 53.3483 195.116 52.4633C195.116 51.4656 194.611 50.6932 193.6 50.146C192.59 49.5989 190.956 49.0357 188.733 48.4403C186.24 47.7483 184.152 47.0242 182.485 46.284C180.817 45.5437 179.386 44.4012 178.19 42.8564C176.994 41.3116 176.388 39.284 176.388 36.7414C176.388 34.7621 176.944 32.9598 178.021 31.3828C179.116 29.7897 180.682 28.5345 182.737 27.6173C184.792 26.7001 187.2 26.2334 189.946 26.2334C193.904 26.2334 197.12 27.1989 199.613 29.146C202.106 31.0771 203.487 33.7483 203.739 37.1277H194.459C194.257 36.0817 193.735 35.2449 192.91 34.6012C192.085 33.9575 191.007 33.6357 189.71 33.6357C188.413 33.6357 187.453 33.9253 186.661 34.5208C185.887 35.1162 185.482 35.8564 185.482 36.7575C185.482 37.707 185.971 38.415 186.965 38.9139C187.958 39.4127 189.592 40.0081 191.882 40.7001C194.426 41.4403 196.548 42.1966 198.232 42.9368C199.916 43.6771 201.381 44.8196 202.594 46.3644C203.824 47.9093 204.43 49.9368 204.43 52.4794C204.43 54.5231 203.807 56.3093 202.56 57.8863C201.314 59.4472 199.63 60.6702 197.491 61.5392C195.352 62.4081 193.045 62.8426 190.552 62.8426C186.341 62.8426 182.838 61.7805 180.026 59.6725C177.213 57.5644 175.68 54.8449 175.428 51.5139" fill="#000"></path>
    <path d="M216.034 47.684C216.606 50.0173 217.718 51.8196 219.385 53.0909C221.053 54.3621 223.074 54.9897 225.465 54.9897C227.604 54.9897 229.305 54.7001 230.602 54.1368C231.899 53.5736 232.909 52.6564 233.65 51.4173H242.779C241.684 55.1024 239.562 57.9185 236.379 59.8817C233.213 61.8449 229.642 62.8265 225.701 62.8265C221.962 62.8265 218.644 62.038 215.747 60.4771C212.867 58.9162 210.627 56.7437 209.044 53.9598C207.461 51.1759 206.669 48.0219 206.669 44.4978C206.669 40.9736 207.478 37.884 209.078 35.1001C210.695 32.3162 212.935 30.1437 215.781 28.5828C218.644 27.0219 221.861 26.2334 225.448 26.2334C229.036 26.2334 232.067 27.0219 234.88 28.615C237.693 30.2081 239.882 32.3966 241.465 35.1805C243.048 37.9644 243.84 41.0702 243.84 44.4978C243.84 45.7368 243.789 46.7989 243.688 47.7001H216L216.034 47.684ZM215.966 41.1185H234.61C234.307 39.0748 233.297 37.3851 231.613 36.0495C229.912 34.7139 227.874 34.038 225.482 34.038C223.09 34.038 220.985 34.6817 219.318 35.969C217.65 37.2564 216.539 38.9782 215.966 41.1185Z" fill="#000"></path>
    <path d="M290.577 47.684C291.149 50.0173 292.261 51.8196 293.928 53.0909C295.596 54.3621 297.617 54.9897 300.008 54.9897C302.131 54.9897 303.848 54.7001 305.162 54.1368C306.459 53.5736 307.469 52.6564 308.194 51.4173H317.322C316.227 55.1024 314.105 57.9185 310.922 59.8817C307.756 61.8449 304.185 62.8265 300.244 62.8265C296.505 62.8265 293.187 62.038 290.291 60.4771C287.411 58.9162 285.171 56.7437 283.587 53.9598C282.004 51.1759 281.213 48.0219 281.213 44.4978C281.213 40.9736 282.021 37.884 283.638 35.1001C285.255 32.3162 287.478 30.1437 290.341 28.5828C293.204 27.0219 296.421 26.2334 300.008 26.2334C303.596 26.2334 306.644 27.0219 309.44 28.615C312.253 30.2081 314.442 32.3966 316.025 35.1805C317.608 37.9644 318.4 41.0702 318.4 44.4978C318.4 45.7368 318.349 46.7989 318.248 47.7001H290.56L290.577 47.684ZM290.493 41.1185H309.137C308.834 39.0748 307.823 37.3851 306.139 36.0495C304.455 34.7139 302.417 34.038 300.025 34.038C297.634 34.038 295.528 34.6817 293.861 35.969C292.194 37.2564 291.082 38.9782 290.509 41.1185" fill="#000"></path>
    <path d="M271.427 26.957L262.737 51.5938H262.568L253.996 26.957H243.25L257.516 62.0536L251.604 76.7455H261.81L281.853 26.957H271.427Z" fill="#000"></path>
    <path d="M28.1599 1.56348C13.4735 1.56348 1.58301 12.9405 1.58301 26.9566H11.4862C11.4862 18.1543 18.9472 11.0255 28.1599 11.0255V1.56348Z" fill="#FF3D00"></path>
</svg>